<svg width="32" height="32" viewBox="0 0 32 32" fill="none" xmlns="http://www.w3.org/2000/svg">
<g clip-path="url(#clip0)">
<path d="M22.1426 18.9888C25.9838 13.5646 24.6991 6.0537 19.2749 2.21336C13.8507 -1.62697 6.33983 -0.34319 2.4995 5.08192C-1.34084 10.5061 -0.0570568 18.0161 5.36805 21.8564C9.23959 24.5974 14.3582 24.8085 18.4417 22.3969L27.3144 31.2164C28.2724 32.2249 29.8664 32.2653 30.8749 31.3072C31.8834 30.3501 31.9237 28.7562 30.9666 27.7477C30.9363 27.7156 30.907 27.6862 30.8749 27.6559L22.1426 18.9888ZM12.3137 19.811C8.02738 19.8119 4.55227 16.3396 4.54951 12.0533C4.54859 7.76694 8.02096 4.29183 12.3082 4.28999C16.589 4.28816 20.0623 7.75501 20.0705 12.0358C20.0779 16.323 16.6073 19.8037 12.3192 19.811C12.3174 19.811 12.3164 19.811 12.3137 19.811Z" fill="black"/>
<path fill-rule="evenodd" clip-rule="evenodd" d="M7.05859 8.82341V12.7058C7.05859 15.5647 9.37618 17.8822 12.2351 17.8822C15.0939 17.8822 17.4115 15.5647 17.4115 12.7058V8.825C17.4115 8.82447 17.4115 8.82394 17.4115 8.82341C17.4115 8.10869 16.8321 7.5293 16.1174 7.5293C15.4027 7.5293 14.8233 8.10869 14.8233 8.82341L14.8233 12.7058C14.8233 14.1352 13.6645 15.294 12.2351 15.294C10.8056 15.294 9.64683 14.1352 9.64683 12.7058L9.64683 8.82341C9.64683 8.10869 9.06743 7.5293 8.35271 7.5293C7.63799 7.5293 7.05859 8.10869 7.05859 8.82341Z" fill="black"/>
</g>
<defs>
<clipPath id="clip0">
<rect width="32" height="32" fill="white"/>
</clipPath>
</defs>
</svg>
